<?xml version="1.0" ?><svg height="512" id="Layer_1" version="1.1" viewBox="0 0 512 512" width="512" xml:space="preserve" xmlns="http://www.w3.org/2000/svg" xmlns:cc="http://creativecommons.org/ns#" xmlns:dc="http://purl.org/dc/elements/1.1/" xmlns:inkscape="http://www.inkscape.org/namespaces/inkscape" xmlns:rdf="http://www.w3.org/1999/02/22-rdf-syntax-ns#" xmlns:sodipodi="http://sodipodi.sourceforge.net/DTD/sodipodi-0.dtd" xmlns:svg="http://www.w3.org/2000/svg"><defs id="defs12"/><g id="g3958"><g id="g11737" style="fill:#5a2b73;fill-opacity:1"><rect height="512" id="rect2987" style="fill:#5a2b73;fill-opacity:1;fill-rule:nonzero;stroke:none" width="512" x="0" y="0"/><path d="m 130.10475,250.1215 120.1122,-120.83213 c 30.1558,-30.320263 79.0273,-30.320263 109.1654,0 7.2178,7.60007 6.88,19.89794 -0.5467,27.36911 -7.5423,7.59118 -19.7424,7.59118 -27.3025,0 l -1.8222,-2.11557 c -15.1557,-12.92456 -37.8981,-12.19122 -52.2049,2.2089 l -122.8099,123.52551 c -8.089,7.49784 -20.3024,7.49784 -27.8358,-0.08 -7.5423,-7.57784 -7.5423,-19.87573 0,-27.45357 1.0133,-1.0089 2.0933,-1.88002 3.2444,-2.62225 z m 269.6646,2.62669 c -7.5423,-7.57784 -19.7468,-7.57784 -27.2891,0 -1.0045,1.02223 -1.8845,2.11558 -2.6312,3.27559 l -119.6277,120.33881 c -15.0756,15.15568 -39.5159,15.15568 -54.5871,0 l -0.5467,-0.0845 c -7.5289,-7.57784 -19.7424,-7.57784 -27.2891,0 -7.5289,7.56451 -7.5289,19.87573 0,27.44023 0.9645,0.96446 1.9911,1.81335 3.0756,2.54669 30.3114,27.8358 77.3207,27.03135 106.632,-2.45335 l 122.2633,-123.60995 c 7.5289,-7.57785 7.5289,-19.87573 0,-27.45357 z m -187.7972,79.72513 c -1.1422,0.75557 -2.2356,1.62224 -3.2356,2.63114 -7.5423,7.56895 -7.5423,19.87572 0,27.44023 7.5334,7.57785 19.7424,7.57785 27.8358,0.0933 l 122.81,-123.54773 c 15.0757,-15.15569 39.5159,-15.15569 54.5738,0 15.0934,15.16458 15.0934,39.7559 0,54.91159 L 297.50625,411.6962 c 15.089,15.15568 39.5159,15.15568 54.5871,0 l 89.1652,-90.24078 c 30.1336,-30.32026 30.1336,-79.48068 0,-109.81427 -30.1336,-30.30249 -79.014,-30.30249 -109.1653,0 l -120.1211,120.83214 z m -16.3423,-11.01787 122.2632,-123.60995 c 7.5379,-7.58673 7.5379,-19.88461 0,-27.44912 -7.5289,-7.58674 -19.7557,-7.58674 -27.2891,0 -1.0133,1.00001 -1.8845,2.10668 -2.6178,3.26669 l -119.641,120.34326 c -15.0757,15.16457 -39.507,15.16457 -54.5738,0 -15.088996,-15.15569 -15.088996,-39.74701 0,-54.91159 l 116.4499,-117.68099 c -15.0668,-15.16902 -39.5159,-15.16902 -54.5872,0 l -89.165196,90.22743 c -30.1469,30.33359 -30.1469,79.49401 0,109.81427 30.146896,30.32915 79.036296,30.32915 109.160996,0 z" id="Squarespace" style="fill:#5a2b73;fill-opacity:1"/></g><path d="m 256.00446,456 c 110.46223,0 199.99552,-89.54667 199.99552,-199.99999 0,-110.46223 -89.53329,-200.000011 -199.99552,-200.000011 -110.46666,0 -200.004444,89.537781 -200.004444,200.000011 C 56.000016,366.45333 145.5378,456 256.00446,456 z m 51.0489,-309.37333 c 14.38666,0 26.05333,11.64889 26.05333,26.04 0,14.37333 -11.66667,26.03111 -26.05333,26.03111 -14.37778,0 -26.03556,-11.65778 -26.03556,-26.03111 0,-14.39111 11.65778,-26.04 26.03556,-26.04 z m -98.96001,0 c 14.38222,0 26.04889,11.64889 26.04889,26.04 0,14.37333 -11.66667,26.03111 -26.04889,26.03111 -14.38222,0 -26.04,-11.65778 -26.04,-26.03111 -0.004,-14.39111 11.65333,-26.04 26.04,-26.04 z m -92.71555,83.32445 h 281.24445 v 52.10665 h -0.57778 c -5.84,72.28445 -66.24445,129.14222 -140.05334,129.14222 -73.79555,0 -134.19111,-56.85777 -140.01777,-129.14667 h -0.59556 v -52.1022 z m 262.15111,46.55109 H 131.10668 v -32.06665 h 246.41779 v 32.06665 z" id="Yahoo_x21__Messenger" style="fill:#ffffff;fill-opacity:1"/></g></svg>