<?xml version="1.0" ?><!DOCTYPE svg  PUBLIC '-//W3C//DTD SVG 1.1//EN'  'http://www.w3.org/Graphics/SVG/1.1/DTD/svg11.dtd'><svg enable-background="new 0 0 300 300" height="300px" id="Layer_1" version="1.1" viewBox="0 0 300 300" width="300px" xml:space="preserve" xmlns="http://www.w3.org/2000/svg" xmlns:xlink="http://www.w3.org/1999/xlink"><path d="M293.333,236.579c0,7.164-5.809,12.973-12.972,12.973H21.64c-7.165,0-12.972-5.809-12.972-12.973V82.355  c0-7.165,5.808-12.972,12.972-12.972h258.722c7.163,0,12.972,5.808,12.972,12.972V236.579z" fill="#BFBFBF"/><g><rect fill="#1F262E" height="104.858" width="284.666" x="8.667" y="107.578"/><path d="M281.531,88.66c0-5.671-4.598-10.27-10.27-10.27h-7.837v20.539h7.837   C276.934,98.929,281.531,94.332,281.531,88.66z" fill="#1F262E"/></g><circle cx="151.001" cy="162.206" fill="#3E444E" r="69.747"/><path d="M204.836,56.948H98.698c-6.983,0-9.589,5.522-9.717,12.436h125.572  C214.425,62.47,211.818,56.948,204.836,56.948z" fill="#3E444E"/><g><path d="M151.001,111.275c-27.591,0-49.958,22.368-49.958,49.959c0,27.593,22.368,49.958,49.958,49.958   c27.589,0,49.961-22.365,49.961-49.958C200.962,133.643,178.59,111.275,151.001,111.275z M151.001,203.847   c-22.997,0-41.64-18.644-41.64-41.641s18.643-41.641,41.64-41.641c22.996,0,41.639,18.644,41.639,41.641   S173.997,203.847,151.001,203.847z" fill="#E6E7E8"/><circle cx="151.001" cy="161.234" fill="#E6E7E8" r="32.309"/></g><g><circle cx="137.492" cy="169.912" fill="#F1F0F0" r="10.937"/><circle cx="151.767" cy="157.007" fill="#F1F0F0" r="5.876"/><path d="M255.588,78.39c-5.672,0-10.27,4.598-10.27,10.27c0,5.672,4.598,10.27,10.27,10.27h7.837V78.39H255.588z" fill="#F1F0F0"/><circle cx="32.833" cy="88.66" fill="#F1F0F0" r="10.26"/></g></svg>