<?xml version="1.0" ?><!DOCTYPE svg  PUBLIC '-//W3C//DTD SVG 1.1//EN'  'http://www.w3.org/Graphics/SVG/1.1/DTD/svg11.dtd'><svg enable-background="new 0 0 512 512" height="512px" id="T-Strap_x5F_platform" version="1.1" viewBox="0 0 512 512" width="512px" xml:space="preserve" xmlns="http://www.w3.org/2000/svg" xmlns:xlink="http://www.w3.org/1999/xlink"><path d="M303,92.745l-154.329,8.921l-0.433-1.021l-0.146-0.256c-1.464-2.563-2.879-4.926-4.326-7.224  c-16.641-26.424-37.167-44.629-45.221-51.23l-3.364-2.757L71.804,60.756l3.051,3.652c30.6,36.618,45.798,70.928,45.172,101.977  c-0.302,15.038-4.403,25.808-7.79,32.195l-2.152,4.058l47.742,30.753l2.141-5.888c10.913-30.028,12.281-60.144,4.067-89.512  l-0.101-0.361c0,0-0.22-0.485-0.256-0.556l-1.297-3.061L303,118.837V92.745z" fill="#F28F8F"/><path d="M380.28,367.854c-29.799,0-65.555-5.548-106.276-16.49l-1.771-0.477l-20.957-30.314l4.568-2.745  c11.587-6.962,70.526-41.692,92.986-41.692c1.404,0,2.631,0.141,3.646,0.417L439,298.622v57.574l-2.63,1.415  C429.262,361.437,412.522,367.854,380.28,367.854z" fill="#F28F8F"/><path d="M334.269,473.378c-25.154,0-50.662-4.357-75.813-12.952l-3.356-1.147l-0.027-3.547  c-0.087-11.795-1.816-43.186-15.955-79.829c-10.397-26.944-25.387-51.131-44.553-71.887c-23.945-25.931-54.499-46.538-90.813-61.247  c-0.242-0.098-0.494-0.147-0.751-0.147c-0.341,0-0.678,0.088-0.975,0.254c-0.535,0.299-0.898,0.815-0.998,1.417  c-1.03,6.179-25.116,151.981-15.79,208.515l0.959,5.813h-27.21l-0.063-4.936c-0.263-20.61-1.194-74.602-4.177-130.67  c-3.78-71.068-9.358-119.337-16.578-143.465l-3.124-10.438l9.951,4.438c13.956,6.225,35.863,16.69,60.972,31.198l0.206,0.125  l50.832,32.743l0.103,0.074c36.518,26.229,66.809,54.474,90.033,83.951l0.096,0.122l22.011,31.84l0.13,0.174  c0.054,0.077,0.117,0.153,0.189,0.229c0.099,0.097,0.17,0.16,0.23,0.207l0.062,0.041c0.114,0.08,0.204,0.133,0.28,0.17l0.049,0.023  c0.059,0.023,0.138,0.052,0.258,0.086l0.286,0.083l0.034,0.015c42,11.432,78.832,17.223,109.515,17.223  c39.646,0,56.698-9.583,60.98-12.52l0.674-0.463l0.785-0.224c8.749-2.49,16.798-5.577,23.923-9.175l11.534-5.824l-38.829,101.691  l-1.444,0.89C427.556,452.599,389.502,473.378,334.269,473.378z" fill="#F2EAE2"/><path d="M487.104,330.952c-2.567-1.857-6.063-1.76-8.519,0.238c-8.301,6.744-18.518,12.211-30.586,16.398v-50.521  c0-3.199-2.17-5.992-5.27-6.782l-86.53-22.071c-47.399-38.109-44.242-146.251-44.204-147.348c0.001-0.04-0.003-0.079-0.002-0.119  c0.001-0.042,0.006-0.083,0.006-0.125v-30c0-1.928-0.796-3.771-2.199-5.094c-1.402-1.323-3.284-2.008-5.215-1.894l-150.646,8.918  c-0.833-1.398-1.683-2.793-2.559-4.184C128.787,52.491,100.285,31.8,99.082,30.937c-2.699-1.938-6.389-1.711-8.83,0.542l-26,24  c-2.781,2.567-3.018,6.88-0.534,9.737c39.327,45.227,47.443,79.26,47.326,99.846c-0.077,13.564-3.666,23.203-6.379,28.566  c-40.998-23.188-71.682-34.979-73.173-35.547c-3.041-1.156-6.477-0.069-8.296,2.628c-1.819,2.697-1.54,6.292,0.675,8.676  c4.366,4.702,15.239,29.127,21.886,154.064c3.7,69.537,4.238,136.556,4.243,137.225c0.029,3.846,3.154,6.947,7,6.947h32  c2.203,0,4.277-1.037,5.6-2.799c1.322-1.764,1.737-4.045,1.12-6.16c-11.603-39.783,7.333-169.146,12.785-204.117  c59.069,26.012,100.095,67.71,122.002,124.047c17.17,44.158,15.521,81.299,15.502,81.662c-0.162,3.074,1.705,5.895,4.598,6.946  c27.694,10.07,55.842,15.177,83.661,15.177c66.608,0,108.945-28.775,110.716-30c1.16-0.803,2.052-1.939,2.555-3.258l42-110  C490.67,336.159,489.671,332.81,487.104,330.952z M334.269,468.378c-24.623,0-49.559-4.265-74.196-12.684  c-0.091-12.264-1.882-44.248-16.292-81.592c-10.625-27.535-25.948-52.258-45.544-73.479c-24.448-26.477-55.605-47.501-92.608-62.489  c-1.969-0.799-4.194-0.659-6.048,0.38c-1.854,1.038-3.136,2.861-3.485,4.957c-1.091,6.547-25.244,152.85-15.79,210.15H63.924  c-0.242-18.982-1.163-74.082-4.184-130.871c-4.492-84.445-10.797-124.635-16.781-144.633c13.963,6.228,35.655,16.602,60.507,30.961  l50.725,32.674c30.207,21.696,62.675,49.543,89.022,82.984l22.029,31.865c0.014,0.021,0.032,0.037,0.047,0.057  c0.206,0.292,0.434,0.564,0.68,0.82c0.045,0.047,0.091,0.091,0.137,0.137c0.255,0.249,0.524,0.48,0.813,0.688  c0.04,0.028,0.081,0.053,0.121,0.08c0.299,0.206,0.61,0.392,0.938,0.548c0.014,0.008,0.025,0.016,0.039,0.021  c0.333,0.156,0.683,0.281,1.041,0.385c0.034,0.01,0.065,0.027,0.101,0.037c42.527,11.598,79.914,17.479,111.122,17.479  c40.736,0,58.774-9.943,63.809-13.396c9.061-2.58,17.34-5.75,24.808-9.521l-33.614,88.035  C426.914,447.122,389.046,468.378,334.269,468.378z M125.026,166.485c0.651-32.309-14.932-67.705-46.333-105.283l16.683-15.4  c8.618,7.064,28.125,24.567,44.159,50.027c1.475,2.341,2.873,4.688,4.215,7.039l15.397,36.33c0.021,0.049,0.051,0.092,0.072,0.14  c7.942,28.396,6.639,57.319-3.951,86.457l-38.614-24.873C120.188,194.257,124.701,182.658,125.026,166.485z M298,98.049v16.324  l-128.003,14.548l-9.631-22.724L298,98.049z M434,353.208c-5.711,3.074-21.681,9.646-53.72,9.646  c-29.367,0-64.677-5.489-104.979-16.319l-16.883-24.421c23.664-14.219,72.001-40.979,90.411-40.979c1.194,0,1.926,0.131,2.328,0.24  c0.037,0.01,0.074,0.02,0.111,0.029L434,302.507V353.208z M336.831,268.915c-27.501,6.951-71.05,32.373-86.83,41.924  c-25.037-30.537-54.706-56.306-82.823-76.952c11.678-30.382,14.011-61.241,7.129-91.366l123.608-14.048  C298.037,153.359,301.469,228.458,336.831,268.915z" fill="#5A5954"/></svg>